<svg width="153" height="90" viewBox="0 0 153 90" fill="none" xmlns="http://www.w3.org/2000/svg">
<g filter="url(#filter0_d_9_434)">
<path d="M134.25 0H10.25C5.83172 0 2.25 3.58172 2.25 8V72C2.25 76.4183 5.83172 80 10.25 80H134.25C138.668 80 142.25 76.4183 142.25 72V8C142.25 3.58172 138.668 0 134.25 0Z" fill="white"/>
</g>
<path d="M2.75 28.5H142.75" stroke="#F1F1F1"/>
<path d="M99.25 6H45.25C43.5931 6 42.25 7.34315 42.25 9C42.25 10.6569 43.5931 12 45.25 12H99.25C100.907 12 102.25 10.6569 102.25 9C102.25 7.34315 100.907 6 99.25 6Z" fill="#E4E6EA"/>
<path d="M114.25 16H30.25C28.5931 16 27.25 17.3431 27.25 19C27.25 20.6569 28.5931 22 30.25 22H114.25C115.907 22 117.25 20.6569 117.25 19C117.25 17.3431 115.907 16 114.25 16Z" fill="#E4E6EA"/>
<path d="M15.25 51H12.25C11.6977 51 11.25 51.4477 11.25 52V72C11.25 72.5523 11.6977 73 12.25 73H15.25C15.8023 73 16.25 72.5523 16.25 72V52C16.25 51.4477 15.8023 51 15.25 51Z" fill="#E4E6EA"/>
<path d="M22.25 51H19.25C18.6977 51 18.25 51.4477 18.25 52V72C18.25 72.5523 18.6977 73 19.25 73H22.25C22.8023 73 23.25 72.5523 23.25 72V52C23.25 51.4477 22.8023 51 22.25 51Z" fill="#E4E6EA"/>
<path d="M41.25 51H38.25C37.6977 51 37.25 51.4477 37.25 52V72C37.25 72.5523 37.6977 73 38.25 73H41.25C41.8023 73 42.25 72.5523 42.25 72V52C42.25 51.4477 41.8023 51 41.25 51Z" fill="#E4E6EA"/>
<path d="M52.25 51H45.25C44.6977 51 44.25 51.4477 44.25 52V72C44.25 72.5523 44.6977 73 45.25 73H52.25C52.8023 73 53.25 72.5523 53.25 72V52C53.25 51.4477 52.8023 51 52.25 51Z" fill="#E4E6EA"/>
<path d="M127.25 51H56.25C55.6977 51 55.25 51.4477 55.25 52V72C55.25 72.5523 55.6977 73 56.25 73H127.25C127.802 73 128.25 72.5523 128.25 72V52C128.25 51.4477 127.802 51 127.25 51Z" fill="#E4E6EA"/>
<path d="M27.25 52C27.25 51.4477 26.8023 51 26.25 51C25.6977 51 25.25 51.4477 25.25 52V72C25.25 72.5523 25.6977 73 26.25 73C26.8023 73 27.25 72.5523 27.25 72V52Z" fill="#E4E6EA"/>
<path d="M35.25 52C35.25 51.4477 34.8023 51 34.25 51C33.6977 51 33.25 51.4477 33.25 52V72C33.25 72.5523 33.6977 73 34.25 73C34.8023 73 35.25 72.5523 35.25 72V52Z" fill="#E4E6EA"/>
<path d="M31.25 52C31.25 51.4477 30.8023 51 30.25 51C29.6977 51 29.25 51.4477 29.25 52V72C29.25 72.5523 29.6977 73 30.25 73C30.8023 73 31.25 72.5523 31.25 72V52Z" fill="#E4E6EA"/>
<path d="M132.25 51H131.25C130.698 51 130.25 51.4477 130.25 52V72C130.25 72.5523 130.698 73 131.25 73H132.25C132.802 73 133.25 72.5523 133.25 72V52C133.25 51.4477 132.802 51 132.25 51Z" fill="#E4E6EA"/>
<path d="M37.25 38H14.25C12.5931 38 11.25 39.3431 11.25 41C11.25 42.6569 12.5931 44 14.25 44H37.25C38.9069 44 40.25 42.6569 40.25 41C40.25 39.3431 38.9069 38 37.25 38Z" fill="#E4E6EA"/>
<path d="M130.25 38H107.25C105.593 38 104.25 39.3431 104.25 41C104.25 42.6569 105.593 44 107.25 44H130.25C131.907 44 133.25 42.6569 133.25 41C133.25 39.3431 131.907 38 130.25 38Z" fill="#E4E6EA"/>
<path d="M152.75 69C152.75 57.402 143.348 48 131.75 48C120.152 48 110.75 57.402 110.75 69C110.75 80.598 120.152 90 131.75 90C143.348 90 152.75 80.598 152.75 69Z" fill="#206BC4"/>
<path d="M137.72 75.9111C137.534 75.5965 137.436 75.2379 137.436 74.8726C137.436 74.5072 137.534 74.1486 137.72 73.8341C137.884 73.5485 138.114 73.3064 138.391 73.128C138.668 72.9497 138.984 72.8403 139.312 72.8091C139.343 72.48 139.452 72.163 139.63 71.8847C139.809 71.6064 140.051 71.3747 140.337 71.2091C140.652 71.0233 141.01 70.9253 141.376 70.9253C141.741 70.9253 142.099 71.0233 142.414 71.2091V64.8681C142.415 64.2612 142.175 63.6788 141.746 63.249C141.318 62.8192 140.736 62.5771 140.129 62.5761H137.145C137.107 62.5759 137.069 62.5655 137.036 62.546C137.004 62.5264 136.977 62.4985 136.958 62.4651L136.397 61.3301C136.205 60.9514 135.912 60.6332 135.55 60.4109C135.189 60.1885 134.773 60.0705 134.348 60.0701H130.886C130.462 60.0725 130.047 60.1921 129.686 60.4157C129.326 60.6393 129.034 60.9581 128.844 61.3371L128.283 62.4471C128.266 62.4843 128.239 62.516 128.204 62.5381C128.17 62.5603 128.13 62.5721 128.089 62.5721H125.112C124.811 62.5718 124.512 62.631 124.234 62.7464C123.955 62.8617 123.702 63.0309 123.489 63.2442C123.276 63.4575 123.108 63.7108 122.993 63.9894C122.878 64.2681 122.819 64.5667 122.82 64.8681V73.6261C122.821 74.233 123.063 74.8146 123.493 75.2431C123.923 75.6716 124.505 75.9119 125.112 75.9111H137.72ZM132.62 65.4581C133.307 65.4581 133.978 65.6618 134.55 66.0434C135.121 66.425 135.566 66.9674 135.829 67.602C136.092 68.2366 136.16 68.9349 136.026 69.6086C135.892 70.2823 135.562 70.9011 135.076 71.3869C134.59 71.8726 133.971 72.2033 133.298 72.3373C132.624 72.4713 131.926 72.4026 131.291 72.1397C130.656 71.8768 130.114 71.4317 129.732 70.8606C129.351 70.2894 129.147 69.618 129.147 68.9311C129.148 68.0104 129.515 67.1278 130.166 66.4767C130.817 65.8257 131.699 65.4594 132.62 65.4581Z" fill="white"/>
<path d="M141.164 79.2656C139.903 79.2656 138.877 78.2397 138.877 76.9788V76.9494H138.856C137.595 76.9494 136.57 75.9235 136.57 74.6625C136.57 73.4016 137.595 72.3758 138.856 72.3758H138.877V72.3464C138.877 72.0752 138.927 71.8068 139.023 71.5566V71.5269L139.129 71.3158C139.51 70.5527 140.309 70.0596 141.164 70.0596C142.019 70.0596 142.818 70.5527 143.2 71.3158L143.305 71.527V71.5566C143.401 71.8067 143.451 72.0752 143.451 72.3464V72.3758H143.48C144.741 72.3758 145.767 73.4016 145.767 74.6625C145.767 75.9235 144.741 76.9494 143.48 76.9494H143.451V76.9788C143.451 78.2397 142.425 79.2656 141.164 79.2656Z" fill="white"/>
<path d="M141.164 71.0596C140.667 71.0596 140.229 71.3512 140.023 71.763V71.7715C139.929 71.9432 139.877 72.1404 139.877 72.3464V73.3758H138.856C138.144 73.3758 137.57 73.9506 137.57 74.6625C137.57 75.3746 138.144 75.9494 138.856 75.9494H139.877V76.9788C139.877 77.6909 140.452 78.2656 141.164 78.2656C141.876 78.2656 142.451 77.6909 142.451 76.9788V75.9494H143.48C144.192 75.9494 144.767 75.3746 144.767 74.6625C144.767 73.9506 144.192 73.3758 143.48 73.3758H142.451V72.3464C142.451 72.1404 142.399 71.9432 142.305 71.7715V71.763C142.099 71.3512 141.662 71.0596 141.164 71.0596ZM141.164 69.0596C142.395 69.0596 143.545 69.7697 144.094 70.8687L144.305 71.2909V71.3897C144.315 71.4223 144.325 71.4552 144.334 71.4882C145.734 71.8651 146.767 73.1454 146.767 74.6625C146.767 76.1785 145.736 77.458 144.338 77.836C143.96 79.234 142.68 80.2656 141.164 80.2656C139.647 80.2656 138.367 79.2328 137.99 77.8335C136.597 77.4524 135.57 76.1751 135.57 74.6625C135.57 73.1488 136.598 71.8707 137.993 71.4907C138.003 71.4569 138.013 71.4232 138.023 71.3897V71.2908L138.234 70.8685C138.784 69.7696 139.934 69.0596 141.164 69.0596Z" fill="#206BC4"/>
<defs>
<filter id="filter0_d_9_434" x="0.25" y="0" width="144" height="84" filterUnits="userSpaceOnUse" color-interpolation-filters="sRGB">
<feFlood flood-opacity="0" result="BackgroundImageFix"/>
<feColorMatrix in="SourceAlpha" type="matrix" values="0 0 0 0 0 0 0 0 0 0 0 0 0 0 0 0 0 0 127 0" result="hardAlpha"/>
<feOffset dy="2"/>
<feGaussianBlur stdDeviation="1"/>
<feColorMatrix type="matrix" values="0 0 0 0 0 0 0 0 0 0 0 0 0 0 0 0 0 0 0.059 0"/>
<feBlend mode="normal" in2="BackgroundImageFix" result="effect1_dropShadow_9_434"/>
<feBlend mode="normal" in="SourceGraphic" in2="effect1_dropShadow_9_434" result="shape"/>
</filter>
</defs>
</svg>
