<svg width="153" height="91" viewBox="0 0 153 91" fill="none" xmlns="http://www.w3.org/2000/svg">
<g filter="url(#filter0_d_131_3738)">
<path d="M134.878 0.648743H10.8782C6.4599 0.648743 2.87817 4.23046 2.87817 8.64874V72.6487C2.87817 77.067 6.4599 80.6487 10.8782 80.6487H134.878C139.296 80.6487 142.878 77.067 142.878 72.6487V8.64874C142.878 4.23046 139.296 0.648743 134.878 0.648743Z" fill="white"/>
<path d="M10.8782 1.14874H134.878C139.02 1.14874 142.378 4.50661 142.378 8.64874V72.6487C142.378 76.7909 139.02 80.1487 134.878 80.1487H10.8782C6.73604 80.1487 3.37817 76.7909 3.37817 72.6487V8.64874C3.37817 4.50661 6.73604 1.14874 10.8782 1.14874Z" stroke="#206BC4" stroke-opacity="0.2"/>
</g>
<path d="M3.37817 27.1487H142.378" stroke="#206BC4" stroke-opacity="0.2"/>
<path d="M27.8782 20.6487C31.7442 20.6487 34.8782 17.5147 34.8782 13.6487C34.8782 9.78275 31.7442 6.64874 27.8782 6.64874C24.0122 6.64874 20.8782 9.78275 20.8782 13.6487C20.8782 17.5147 24.0122 20.6487 27.8782 20.6487Z" fill="#CEE1F6"/>
<path d="M93.8782 10.6487H56.8782C55.2213 10.6487 53.8782 11.9919 53.8782 13.6487C53.8782 15.3056 55.2213 16.6487 56.8782 16.6487H93.8782C95.535 16.6487 96.8782 15.3056 96.8782 13.6487C96.8782 11.9919 95.535 10.6487 93.8782 10.6487Z" fill="#CEE1F6"/>
<path d="M113.878 38.6487H56.8782C55.2213 38.6487 53.8782 39.9919 53.8782 41.6487C53.8782 43.3056 55.2213 44.6487 56.8782 44.6487H113.878C115.535 44.6487 116.878 43.3056 116.878 41.6487C116.878 39.9919 115.535 38.6487 113.878 38.6487Z" fill="#CEE1F6"/>
<path d="M121.878 49.6487H56.8782C55.2213 49.6487 53.8782 50.9919 53.8782 52.6487C53.8782 54.3056 55.2213 55.6487 56.8782 55.6487H121.878C123.535 55.6487 124.878 54.3056 124.878 52.6487C124.878 50.9919 123.535 49.6487 121.878 49.6487Z" fill="#CEE1F6"/>
<path d="M86.8782 60.6487H56.8782C55.2213 60.6487 53.8782 61.9919 53.8782 63.6487C53.8782 65.3056 55.2213 66.6487 56.8782 66.6487H86.8782C88.535 66.6487 89.8782 65.3056 89.8782 63.6487C89.8782 61.9919 88.535 60.6487 86.8782 60.6487Z" fill="#CEE1F6"/>
<path d="M35.8782 38.6487H18.8782C15.5645 38.6487 12.8782 41.335 12.8782 44.6487V61.6487C12.8782 64.9625 15.5645 67.6487 18.8782 67.6487H35.8782C39.1919 67.6487 41.8782 64.9625 41.8782 61.6487V44.6487C41.8782 41.335 39.1919 38.6487 35.8782 38.6487Z" fill="#CEE1F6"/>
<path d="M27.1783 57.4017C28.3407 57.4017 29.477 57.057 30.4435 56.4112C31.4099 55.7654 32.1632 54.8474 32.608 53.7735C33.0528 52.6996 33.1691 51.5178 32.9423 50.3778C32.7154 49.2377 32.1556 48.1906 31.3336 47.3687C30.5116 46.5468 29.4643 45.9872 28.3242 45.7605C27.1841 45.5339 26.0024 45.6504 24.9285 46.0954C23.8547 46.5403 22.9369 47.2937 22.2912 48.2603C21.6456 49.2269 21.3011 50.3633 21.3013 51.5257C21.3013 53.0844 21.9205 54.5792 23.0226 55.6814C24.1248 56.7835 25.6196 57.4017 27.1783 57.4017ZM27.1783 47.6077C27.9532 47.6077 28.7107 47.8375 29.355 48.268C29.9993 48.6985 30.5015 49.3104 30.798 50.0264C31.0946 50.7423 31.1722 51.5301 31.021 52.2901C30.8698 53.0501 30.4967 53.7482 29.9487 54.2962C29.4008 54.8441 28.7027 55.2172 27.9426 55.3684C27.1826 55.5196 26.3948 55.442 25.6789 55.1455C24.963 54.8489 24.3511 54.3467 23.9206 53.7024C23.4901 53.0581 23.2603 52.3006 23.2603 51.5257C23.2603 50.4866 23.6731 49.49 24.4078 48.7553C25.1426 48.0205 26.1392 47.6077 27.1783 47.6077Z" fill="white"/>
<path d="M27.1783 59.3607C24.8412 59.3634 22.6006 60.2929 20.9481 61.9455C19.2955 63.5981 18.3659 65.8386 18.3633 68.1757C18.3633 68.4355 18.4665 68.6846 18.6502 68.8683C18.8339 69.052 19.083 69.1552 19.3428 69.1552C19.6026 69.1552 19.8517 69.052 20.0354 68.8683C20.2191 68.6846 20.3223 68.4355 20.3223 68.1757C20.3223 66.3574 21.0446 64.6135 22.3304 63.3278C23.6161 62.042 25.36 61.3197 27.1783 61.3197C28.9966 61.3197 30.7405 62.042 32.0262 63.3278C33.312 64.6135 34.0343 66.3574 34.0343 68.1757C34.0343 68.4355 34.1375 68.6846 34.3212 68.8683C34.5049 69.052 34.754 69.1552 35.0138 69.1552C35.2736 69.1552 35.5227 69.052 35.7064 68.8683C35.8901 68.6846 35.9933 68.4355 35.9933 68.1757C35.9906 65.8386 35.0611 63.5981 33.4085 61.9455C31.7559 60.2929 29.5154 59.3634 27.1783 59.3607Z" fill="white"/>
<path d="M152.878 69.6487C152.878 58.0508 143.476 48.6487 131.878 48.6487C120.28 48.6487 110.878 58.0508 110.878 69.6487C110.878 81.2467 120.28 90.6487 131.878 90.6487C143.476 90.6487 152.878 81.2467 152.878 69.6487Z" fill="#206BC4"/>
<path d="M137.848 76.5598C137.662 76.2452 137.564 75.8866 137.564 75.5213C137.564 75.1559 137.662 74.7973 137.848 74.4827C138.012 74.1972 138.243 73.955 138.52 73.7767C138.797 73.5984 139.112 73.489 139.44 73.4577C139.471 73.1287 139.58 72.8117 139.759 72.5334C139.937 72.2551 140.179 72.0234 140.465 71.8577C140.78 71.672 141.138 71.574 141.504 71.574C141.869 71.574 142.228 71.672 142.542 71.8577V65.5167C142.543 64.9098 142.303 64.3275 141.874 63.8977C141.446 63.4679 140.864 63.2258 140.257 63.2248H137.273C137.235 63.2245 137.198 63.2141 137.165 63.1946C137.132 63.1751 137.105 63.1472 137.086 63.1138L136.525 61.9787C136.333 61.6001 136.04 61.2819 135.679 61.0595C135.317 60.8372 134.901 60.7192 134.476 60.7188H131.014C130.59 60.7211 130.175 60.8408 129.815 61.0643C129.454 61.2879 129.163 61.6068 128.972 61.9857L128.411 63.0958C128.394 63.133 128.367 63.1646 128.333 63.1868C128.298 63.209 128.258 63.2208 128.217 63.2208H125.24C124.939 63.2205 124.64 63.2797 124.362 63.3951C124.083 63.5104 123.83 63.6796 123.618 63.8929C123.405 64.1062 123.236 64.3594 123.121 64.6381C123.006 64.9168 122.947 65.2153 122.948 65.5167V74.2748C122.949 74.8817 123.191 75.4633 123.621 75.8918C124.051 76.3203 124.633 76.5605 125.24 76.5598H137.848ZM132.748 66.1067C133.435 66.1067 134.107 66.3104 134.678 66.6921C135.249 67.0737 135.694 67.6161 135.957 68.2507C136.22 68.8853 136.289 69.5836 136.155 70.2573C136.021 70.931 135.69 71.5498 135.204 72.0355C134.718 72.5212 134.099 72.852 133.426 72.986C132.752 73.12 132.054 73.0512 131.419 72.7884C130.785 72.5255 130.242 72.0804 129.861 71.5092C129.479 70.9381 129.275 70.2666 129.275 69.5798C129.277 68.6591 129.643 67.7765 130.294 67.1254C130.945 66.4744 131.828 66.1081 132.748 66.1067Z" fill="white"/>
<path d="M141.292 79.9142C140.031 79.9142 139.005 78.8883 139.005 77.6274V77.598H138.985C137.724 77.598 136.698 76.5721 136.698 75.3111C136.698 74.0502 137.724 73.0243 138.985 73.0243H139.005V72.9949C139.005 72.7238 139.055 72.4553 139.151 72.2052V72.1755L139.257 71.9643C139.638 71.2012 140.437 70.7082 141.292 70.7082C142.147 70.7082 142.946 71.2013 143.328 71.9644L143.433 72.1756V72.2052C143.529 72.4553 143.579 72.7238 143.579 72.9949V73.0243H143.608C144.869 73.0243 145.895 74.0502 145.895 75.3111C145.895 76.5721 144.869 77.598 143.608 77.598H143.579V77.6274C143.579 78.8883 142.553 79.9142 141.292 79.9142Z" fill="white"/>
<path d="M141.292 71.7082C140.795 71.7082 140.357 71.9998 140.151 72.4116V72.4201C140.057 72.5917 140.005 72.789 140.005 72.9949V74.0243H138.985C138.273 74.0243 137.698 74.5992 137.698 75.3111C137.698 76.0232 138.273 76.598 138.985 76.598H140.005V77.6274C140.005 78.3394 140.58 78.9142 141.292 78.9142C142.004 78.9142 142.579 78.3394 142.579 77.6274V76.598H143.608C144.321 76.598 144.895 76.0232 144.895 75.3111C144.895 74.5992 144.321 74.0243 143.608 74.0243H142.579V72.9949C142.579 72.789 142.528 72.5918 142.433 72.4201V72.4116C142.227 71.9998 141.79 71.7082 141.292 71.7082ZM141.292 69.7082C142.523 69.7082 143.673 70.4183 144.222 71.5173L144.433 71.9395V72.0382C144.443 72.0709 144.453 72.1038 144.462 72.1368C145.862 72.5137 146.895 73.794 146.895 75.3111C146.895 76.8271 145.864 78.1066 144.466 78.4846C144.088 79.8826 142.808 80.9142 141.292 80.9142C139.775 80.9142 138.495 79.8814 138.118 78.4821C136.725 78.101 135.698 76.8237 135.698 75.3111C135.698 73.7974 136.727 72.5193 138.122 72.1393C138.131 72.1054 138.141 72.0718 138.151 72.0383V71.9394L138.362 71.5171C138.912 70.4182 140.062 69.7082 141.292 69.7082Z" fill="#206BC4"/>
<defs>
<filter id="filter0_d_131_3738" x="0.878174" y="0.648743" width="144" height="84" filterUnits="userSpaceOnUse" color-interpolation-filters="sRGB">
<feFlood flood-opacity="0" result="BackgroundImageFix"/>
<feColorMatrix in="SourceAlpha" type="matrix" values="0 0 0 0 0 0 0 0 0 0 0 0 0 0 0 0 0 0 127 0" result="hardAlpha"/>
<feOffset dy="2"/>
<feGaussianBlur stdDeviation="1"/>
<feColorMatrix type="matrix" values="0 0 0 0 0.12549 0 0 0 0 0.419608 0 0 0 0 0.768627 0 0 0 0.05 0"/>
<feBlend mode="normal" in2="BackgroundImageFix" result="effect1_dropShadow_131_3738"/>
<feBlend mode="normal" in="SourceGraphic" in2="effect1_dropShadow_131_3738" result="shape"/>
</filter>
</defs>
</svg>
